# xmcd CD database file
#
# Track frame offsets:
#	182
#	13220
#	29220
#	43182
#	57272
#	72797
#	88365
#	102017
#	117300
#	133027
#	147717
#	161855
#	177075
#	192442
#	207435
#	222847
#
# Disc length: 3143 seconds
#
# Revision: 0
# Processed by: cddbd v1.4PL0 Copyright (c) Steve Scherf et al.
# Submitted via: CDex 1.50
#
DISCID=010c4510
DTITLE=Jelly Roll Morton - The Complete Jelly Roll Morton Vol. 2
DYEAR=1927
DGENRE=Jazz
TTITLE0=Cannon Ball Blues
TTITLE1=Cannon Ball Blues
TTITLE2=Hyena Stomp
TTITLE3=Hyena Stomp
TTITLE4=Billy Goat Stomp
TTITLE5=Billy Goat Stomp
TTITLE6=Wild Man Blues
TTITLE7=Jungle Blues
TTITLE8=Jungle Blues
TTITLE9=Beale Street Blues
TTITLE10=Beale Street Blues
TTITLE11=The Pearls
TTITLE12=The Pearls
TTITLE13=Wolverine Blues
TTITLE14=Wolverine Blues
TTITLE15=Mister Jelly Lord
EXTD=YEAR: 1927
EXTT0=
EXTT1=
EXTT2=
EXTT3=
EXTT4=
EXTT5=
EXTT6=
EXTT7=
EXTT8=
EXTT9=
EXTT10=
EXTT11=
EXTT12=
EXTT13=
EXTT14=
EXTT15=
PLAYORDER=
